<?xml version="1.0" encoding="UTF-8"?>
<svg viewBox="0 0 199.98 199.98" xmlns="http://www.w3.org/2000/svg">
 <defs>
  <style>.cls-1{fill:none;}.cls-2{clip-path:url(#c);}.cls-3{opacity:0.7;}.cls-4{fill:#ca2128;}.cls-5{fill:#ffeed7;}.cls-6{clip-path:url(#d);}</style>
  <clipPath id="c" transform="translate(0)">
   <rect class="cls-1" width="199.98" height="199.98"/>
  </clipPath>
  <clipPath id="d" transform="translate(0)">
   <rect class="cls-1" x="44.6" y="104.63" width="108.15" height="57.47"/>
  </clipPath>
 </defs>
 <g data-name="Layer 2">
  <g class="cls-2">
   <g class="cls-3">
    <path class="cls-4" transform="translate(0)" d="M200,169.59A30.39,30.39,0,0,1,169.59,200H30.39A30.39,30.39,0,0,1,0,169.59V30.39A30.39,30.39,0,0,1,30.39,0h139.2A30.39,30.39,0,0,1,200,30.39Z"/>
   </g>
  </g>
  <path class="cls-5" transform="translate(0)" d="M137.08,82V39.22h-7.76V72c-1.73,2.43-3.35,3.63-4.91,3.63-1,0-1.65-.62-1.82-1.82a17.74,17.74,0,0,1-.1-3V39.22h-7.74V73.08a21.52,21.52,0,0,0,.69,6.37c.77,2.17,2.49,3.19,5,3.19,2.83,0,5.77-1.72,8.87-5.27V82ZM100.61,69.64c0,4-1.2,5.95-3.7,5.95s-3.71-2-3.71-5.95v-18c0-4,1.2-5.94,3.71-5.94s3.7,2,3.7,5.94Zm7.77-1.46v-15c0-4.58-.79-7.92-2.41-10.09a11.51,11.51,0,0,0-18.09,0c-1.65,2.17-2.43,5.51-2.43,10.09v15c0,4.55.78,7.93,2.43,10.08a11.52,11.52,0,0,0,18.09,0c1.63-2.15,2.41-5.52,2.41-10.08m-23-43.61h-8.7L70.8,47.14,64.69,24.57H55.63c1.81,5.32,3.71,10.68,5.52,16a141,141,0,0,1,5.26,18.19V82H75V58.77Z"/>
  <path class="cls-5" transform="translate(0)" d="M162.22,134c0,9.91,0,20.42-2.23,30a16.06,16.06,0,0,1-13.73,12.49c-15.76,1.76-31.71,1.77-47.59,1.76s-31.83,0-47.59-1.76a16.05,16.05,0,0,1-13.73-12.49c-2.21-9.62-2.21-20.13-2.21-30s0-20.41,2.24-30A16,16,0,0,1,51.11,91.5c15.76-1.77,31.71-1.77,47.59-1.77s31.83,0,47.59,1.77A16,16,0,0,1,160,104c2.21,9.63,2.2,20.13,2.2,30"/>
  <g class="cls-6">
   <g class="cls-3">
    <path class="cls-4" transform="translate(0)" d="M152.75,148v-1.12h-7.84a49.32,49.32,0,0,1-.16,5.2c-.44,2.05-1.55,3.08-3.43,3.08-2.63,0-3.92-2-3.92-5.88v-7.51h15.36V133c0-4.53-.77-7.85-2.38-10a10.65,10.65,0,0,0-9.06-4.35,10.9,10.9,0,0,0-9.2,4.35c-1.64,2.14-2.37,5.46-2.37,10V147.8c0,4.5.83,7.85,2.46,10a11,11,0,0,0,9.3,4.34,10.64,10.64,0,0,0,9.29-4.59,11.06,11.06,0,0,0,1.79-4.6c.07-.77.17-2.48.17-5m-7.68-12.63h-7.67v-3.92q0-5.88,3.85-5.89c2.54,0,3.82,2,3.82,5.89ZM123.76,148.8V131.92a32.94,32.94,0,0,0-.77-8.52c-1-3.17-3.08-4.78-6.14-4.78-2.82,0-5.45,1.55-7.93,4.6V104.63h-7.68v56.89h7.68v-4.1c2.56,3.17,5.2,4.69,7.93,4.69,3.06,0,5.12-1.61,6.14-4.76a34.11,34.11,0,0,0,.77-8.54m-7.68.6c0,3.83-1.13,5.71-3.34,5.71a5.48,5.48,0,0,1-3.83-1.88V127.4a5.52,5.52,0,0,1,3.83-1.87c2.21,0,3.34,2,3.34,5.78ZM86.9,161.52V156.9c-3,3.5-6,5.21-8.77,5.21-2.48,0-4.19-1-4.95-3.15a21.46,21.46,0,0,1-.68-6.3V119.13h7.68v31.21a24,24,0,0,0,.07,3c.19,1.19.77,1.79,1.8,1.79,1.54,0,3.16-1.19,4.86-3.59v-32.4h7.69v42.39ZM71.38,112.65v-8H44.6v8h9v48.87h8.54V112.65Z"/>
   </g>
  </g>
 </g>
</svg>
